<svg width="22" height="24" viewBox="0 0 22 24" fill="none" xmlns="http://www.w3.org/2000/svg">
<path d="M10.5833 22.3333V12.25L1.73333 7.13334V16.6167C1.73333 16.7944 1.77778 16.9611 1.86666 17.1167C1.95555 17.2722 2.08889 17.4056 2.26666 17.5167L10.5833 22.3333ZM11.4333 22.3333L19.7333 17.5167C19.9111 17.4056 20.0444 17.2722 20.1333 17.1167C20.2222 16.9611 20.2667 16.7944 20.2667 16.6167V7.13334L11.4333 12.25V22.3333ZM11 11.5333L19.75 6.46667L11.5417 1.71667C11.3639 1.60556 11.1861 1.55 11.0083 1.55C10.8306 1.55 10.6528 1.60556 10.475 1.71667L2.26666 6.46667L11 11.5333ZM1.85 18.2833C1.53889 18.1056 1.3 17.8694 1.13333 17.575C0.966665 17.2806 0.883331 16.9611 0.883331 16.6167V7.36667C0.883331 7.036 0.966665 6.72 1.13333 6.41867C1.3 6.11733 1.53889 5.87778 1.85 5.7L10.05 0.983334C10.3493 0.805556 10.6658 0.716667 10.9993 0.716667C11.3331 0.716667 11.6556 0.805556 11.9667 0.983334L20.1667 5.7C20.4667 5.87778 20.7 6.11733 20.8667 6.41867C21.0333 6.72 21.1167 7.036 21.1167 7.36667V16.6167C21.1167 16.9611 21.0333 17.2833 20.8667 17.5833C20.7 17.8833 20.4667 18.1167 20.1667 18.2833L11.9667 23.0167C11.6556 23.1944 11.3331 23.2833 10.9993 23.2833C10.6658 23.2833 10.3493 23.1944 10.05 23.0167L1.85 18.2833Z" fill="black"/>
</svg>
