<svg width="19" height="23" viewBox="0 0 19 23" fill="none" xmlns="http://www.w3.org/2000/svg">
<path d="M2.07194 23C1.48677 23 0.995152 22.8153 0.597091 22.4458C0.19903 22.0763 0 21.621 0 21.0799V7.23427C0 6.69314 0.19903 6.23783 0.597091 5.86835C0.995152 5.49888 1.48942 5.31414 2.07989 5.31414H4.71388V4.44242C4.71388 3.2019 5.1784 2.15136 6.10745 1.29082C7.03674 0.430272 8.16856 0 9.50289 0C10.8375 0 11.9722 0.430943 12.907 1.29283C13.8418 2.15471 14.3092 3.20458 14.3092 4.44242V5.31414H16.9266C17.5128 5.31414 18.0048 5.49888 18.4029 5.86835C18.801 6.23783 19 6.69314 19 7.23427V21.0799C19 21.621 18.801 22.0763 18.4029 22.4458C18.0048 22.8153 17.5132 23 16.9281 23H2.07194ZM2.077 22.145H16.923C17.212 22.145 17.4769 22.0333 17.7177 21.8098C17.9585 21.5863 18.0789 21.3404 18.0789 21.0722V7.24198C18.0789 6.97376 17.9585 6.72789 17.7177 6.50437C17.4769 6.28086 17.212 6.1691 16.923 6.1691H14.3042V9.75656C14.3042 9.87949 14.259 9.98287 14.1687 10.0667C14.0784 10.1505 13.967 10.1924 13.8346 10.1924C13.7022 10.1924 13.5938 10.1505 13.5095 10.0667C13.4252 9.98287 13.3831 9.87949 13.3831 9.75656V6.1691H5.63498V9.75656C5.63498 9.87949 5.58983 9.98287 5.49953 10.0667C5.40922 10.1505 5.29785 10.1924 5.1654 10.1924C5.03295 10.1924 4.92459 10.1505 4.8403 10.0667C4.75602 9.98287 4.71388 9.87949 4.71388 9.75656V6.1691H2.077C1.78802 6.1691 1.52313 6.28086 1.28232 6.50437C1.04151 6.72789 0.921103 6.97376 0.921103 7.24198V21.0722C0.921103 21.3404 1.04151 21.5863 1.28232 21.8098C1.52313 22.0333 1.78802 22.145 2.077 22.145ZM5.63498 5.31414H13.3831V4.44242C13.3831 3.42541 13.0108 2.57325 12.2662 1.88593C11.5219 1.19862 10.6007 0.854956 9.50289 0.854956C8.40527 0.854956 7.48622 1.19906 6.74572 1.88727C6.00523 2.57571 5.63498 3.42742 5.63498 4.44242V5.31414Z" fill="black"/>
</svg>
