<svg width="24" height="24" viewBox="0 0 24 24" fill="none" xmlns="http://www.w3.org/2000/svg">
<path d="M12.008 23.4333C10.4249 23.4333 8.93822 23.1331 7.548 22.5327C6.15756 21.932 4.94555 21.1166 3.912 20.0863C2.87844 19.0561 2.06255 17.8469 1.46433 16.4587C0.865888 15.0707 0.566666 13.5844 0.566666 12C0.566666 10.4889 0.836332 9.07067 1.37567 7.74533C1.91478 6.41978 2.67289 5.238 3.65 4.2C3.75 4.1 3.85189 4.05467 3.95567 4.064C4.05922 4.07311 4.149 4.11844 4.225 4.2C4.30833 4.27778 4.35555 4.37222 4.36667 4.48333C4.37778 4.59444 4.32778 4.7 4.21667 4.8C3.35 5.75555 2.66667 6.84567 2.16667 8.07033C1.66667 9.29522 1.41667 10.6046 1.41667 11.9983C1.41667 14.9443 2.44411 17.445 4.499 19.5003C6.55367 21.5557 9.05367 22.5833 11.999 22.5833C14.9441 22.5833 17.4444 21.5557 19.5 19.5003C21.5556 17.445 22.5833 14.9443 22.5833 11.9983C22.5833 10.5994 22.3333 9.28889 21.8333 8.06667C21.3333 6.84444 20.65 5.75555 19.7833 4.8C19.6722 4.7 19.6222 4.59444 19.6333 4.48333C19.6444 4.37222 19.6917 4.27778 19.775 4.2C19.8583 4.12222 19.95 4.07778 20.05 4.06667C20.15 4.05555 20.2556 4.1 20.3667 4.2C21.3333 5.23333 22.0861 6.41389 22.625 7.74167C23.1639 9.06944 23.4333 10.4911 23.4333 12.0067C23.4333 13.5847 23.1332 15.0683 22.533 16.4577C21.9328 17.8468 21.1178 19.0578 20.088 20.0907C19.0582 21.1233 17.8499 21.9387 16.463 22.5367C15.0761 23.1344 13.5911 23.4333 12.008 23.4333ZM11.9987 13.3333C11.8773 13.3333 11.7778 13.2914 11.7 13.2077C11.6222 13.1237 11.5833 13.0211 11.5833 12.9V0.983332C11.5833 0.874888 11.6227 0.778332 11.7013 0.693666C11.7798 0.608999 11.8798 0.566666 12.0013 0.566666C12.1227 0.566666 12.225 0.608999 12.3083 0.693666C12.3917 0.778332 12.4333 0.874888 12.4333 0.983332V12.9C12.4333 13.0211 12.3912 13.1237 12.307 13.2077C12.223 13.2914 12.1202 13.3333 11.9987 13.3333Z" fill="black"/>
</svg>
