<svg width="23" height="23" viewBox="0 0 23 23" fill="none" xmlns="http://www.w3.org/2000/svg">
<path d="M7.96937 16.1438C5.75441 16.1438 3.8841 15.4002 2.35844 13.9132C0.833021 12.4264 0.0703125 10.6143 0.0703125 8.47675C0.0703125 6.33947 0.832292 4.52708 2.35625 3.03958C3.88045 1.55208 5.7459 0.808332 7.9526 0.808332C10.1595 0.808332 12.0286 1.5522 13.5599 3.03994C15.0911 4.52744 15.8568 6.34042 15.8568 8.47888C15.8568 9.43324 15.6745 10.3708 15.3099 11.2917C14.9453 12.2125 14.4774 12.9879 13.9062 13.6178L22.6242 22.0633C22.7063 22.1426 22.7535 22.2443 22.7656 22.3682C22.7778 22.4922 22.7261 22.6073 22.6107 22.7135C22.4952 22.8198 22.3828 22.8729 22.2734 22.8729C22.1641 22.8729 22.0561 22.8213 21.9497 22.7181L13.2442 14.249C12.5189 14.8628 11.6823 15.3321 10.7344 15.6568C9.78646 15.9814 8.86479 16.1438 7.96937 16.1438ZM7.96354 15.2406C9.92014 15.2406 11.5699 14.5906 12.9128 13.2906C14.2556 11.9906 14.9271 10.385 14.9271 8.47392C14.9271 6.56283 14.2556 4.95799 12.9128 3.65937C11.5699 2.36076 9.9171 1.71146 7.95443 1.71146C5.99175 1.71146 4.34201 2.36147 3.00521 3.6615C1.6684 4.96153 1 6.56708 1 8.47817C1 10.3892 1.66889 11.9941 3.00667 13.2927C4.34444 14.5913 5.99674 15.2406 7.96354 15.2406Z" fill="black"/>
</svg>
