<svg width="13" height="12" viewBox="0 0 13 12" fill="none" xmlns="http://www.w3.org/2000/svg">
<path d="M0.640574 4.51852C0.718141 4.27998 0.929717 4.1111 1.17904 4.08854L4.57972 3.7798L5.92369 0.6333C6.02292 0.40213 6.2487 0.25293 6.5 0.25293C6.7513 0.25293 6.97717 0.40213 7.07577 0.6333L8.41974 3.7798L11.821 4.08854C12.0703 4.11155 12.2814 4.28043 12.3594 4.51852C12.437 4.75706 12.3654 5.0187 12.1768 5.18408L9.60614 7.43817L10.3641 10.7765C10.4196 11.0219 10.3243 11.2758 10.1206 11.423C10.0111 11.5025 9.88252 11.5422 9.75346 11.5422C9.64255 11.5422 9.53154 11.5128 9.43241 11.4534L6.5 9.70007L3.56813 11.4534C3.35305 11.582 3.0826 11.5702 2.87938 11.423C2.67572 11.2758 2.58044 11.0219 2.6359 10.7765L3.39385 7.43817L0.82321 5.18408C0.634732 5.0187 0.563008 4.7576 0.640574 4.51852Z" fill="#FFC400"/>
</svg>
