<svg width="12" height="12" viewBox="0 0 12 12" fill="none" xmlns="http://www.w3.org/2000/svg">
<g clip-path="url(#clip0_285_1118)">
<path d="M9.14379 11.5422C9.27286 11.5422 9.40103 11.5019 9.51042 11.4228C9.71417 11.2752 9.80936 11.0213 9.7539 10.7764L8.99603 7.43799L11.5662 5.18397C11.7552 5.01904 11.8274 4.75785 11.7498 4.51885C11.6722 4.28031 11.4612 4.11143 11.2113 4.08833L7.8106 3.77959L6.46608 0.633149C6.36694 0.401977 6.14116 0.252686 5.89031 0.252686C5.63945 0.252686 5.41367 0.401977 5.31453 0.63261L3.97001 3.77959L0.569843 4.08833C0.319436 4.11089 0.108397 4.28031 0.0308304 4.51885C-0.0467358 4.7574 0.0249882 5.01904 0.213917 5.18397L2.78413 7.43754L2.02626 10.7759C1.97072 11.0213 2.06599 11.2752 2.26966 11.4224C2.47288 11.5696 2.74387 11.5809 2.95787 11.4523L5.89031 9.69991L8.82274 11.4533C8.92188 11.5122 9.03234 11.5422 9.14379 11.5422ZM5.89031 8.94501C5.77886 8.94501 5.66848 8.97494 5.56925 9.03381L2.80175 10.689L3.51702 7.53811C3.56807 7.31386 3.49194 7.07972 3.31865 6.92801L0.891794 4.79964L4.10259 4.50807C4.33376 4.48695 4.53258 4.34161 4.62291 4.12859L5.89031 1.15931L7.15924 4.12904C7.24858 4.34062 7.44739 4.48596 7.67803 4.50708L10.8893 4.79865L8.4625 6.92702C8.28867 7.07918 8.21263 7.31287 8.26414 7.53766L8.97886 10.6885L6.21136 9.03381C6.11222 8.97494 6.00176 8.94501 5.89031 8.94501ZM7.83658 3.84044C7.83658 3.84044 7.83658 3.84098 7.83711 3.84143L7.83658 3.84044ZM3.94503 3.839L3.94449 3.83999C3.94449 3.83945 3.94449 3.83945 3.94503 3.839Z" fill="#919191"/>
</g>
<defs>
<clipPath id="clip0_285_1118">
<rect width="11.7805" height="11.7805" fill="white" transform="matrix(-1 0 0 1 11.7805 0)"/>
</clipPath>
</defs>
</svg>
