<svg width="22" height="22" viewBox="0 0 22 22" fill="none" xmlns="http://www.w3.org/2000/svg">
<g clip-path="url(#clip0_138_40)">
<path d="M11 11.0284C5.20236 11.0284 0.485489 15.7453 0.485489 21.5428C0.485489 21.7952 0.690307 22 0.942655 22C1.195 22 1.39982 21.7952 1.39982 21.5428C1.39982 16.249 5.70619 11.9426 11 11.9426C16.2938 11.9426 20.6002 16.249 20.6002 21.5428C20.6002 21.7952 20.805 22 21.0574 22C21.3097 22 21.5145 21.7952 21.5145 21.5428C21.5145 15.7443 16.7976 11.0284 11 11.0284Z" fill="black"/>
<path d="M11 0C8.22779 0 5.97131 2.25557 5.97131 5.02866C5.97131 7.80174 8.22783 10.0573 11 10.0573C13.7721 10.0573 16.0286 7.80174 16.0286 5.02866C16.0286 2.25557 13.7722 0 11 0ZM11 9.14303C8.73158 9.14303 6.8856 7.29705 6.8856 5.02866C6.8856 2.76027 8.73158 0.91429 11 0.91429C13.2684 0.91429 15.1143 2.76027 15.1143 5.02866C15.1143 7.29705 13.2684 9.14303 11 9.14303Z" fill="black"/>
</g>
<defs>
<clipPath id="clip0_138_40">
<rect width="22" height="22" fill="white"/>
</clipPath>
</defs>
</svg>
