<svg width="48" height="48" viewBox="0 0 48 48" fill="none" xmlns="http://www.w3.org/2000/svg">
<path d="M17.7563 19.5292L22.5354 17.1396C23.0252 16.9083 23.5139 16.7927 24.0016 16.7927C24.4898 16.7927 24.9774 16.9083 25.4646 17.1396L30.2823 19.5292V2.57085H17.7563V19.5292ZM5.01902 47.3948C3.7754 47.3948 2.72887 46.9701 1.87941 46.1206C1.02995 45.2712 0.605225 44.2246 0.605225 42.981V5.01902C0.605225 3.77541 1.02995 2.72887 1.87941 1.87941C2.72887 1.02996 3.7754 0.605225 5.01902 0.605225H42.981C44.2246 0.605225 45.2712 1.02996 46.1206 1.87941C46.9701 2.72887 47.3948 3.77541 47.3948 5.01902V42.981C47.3948 44.2246 46.9701 45.2712 46.1206 46.1206C45.2712 46.9701 44.2246 47.3948 42.981 47.3948H5.01902ZM5.03752 45.4292H42.9625C43.5792 45.4292 44.1445 45.1722 44.6584 44.6584C45.1722 44.1445 45.4292 43.5792 45.4292 42.9625V5.03752C45.4292 4.42085 45.1722 3.85557 44.6584 3.34168C44.1445 2.82779 43.5792 2.57085 42.9625 2.57085H32.2479V21.0709C32.2479 21.4691 32.0768 21.7677 31.7346 21.9666C31.3928 22.1659 31.0372 22.1757 30.6677 21.9958L24 18.6427L17.3323 21.9958C16.9716 22.1757 16.6244 22.1659 16.2909 21.9666C15.9574 21.7677 15.7906 21.4691 15.7906 21.0709V2.57085H5.03752C4.42085 2.57085 3.85557 2.82779 3.34168 3.34168C2.82779 3.85557 2.57085 4.42085 2.57085 5.03752V42.9625C2.57085 43.5792 2.82779 44.1445 3.34168 44.6584C3.85557 45.1722 4.42085 45.4292 5.03752 45.4292Z" fill="#FF9900"/>
<path d="M8.96877 37.0271C9.14863 37.207 9.37988 37.2969 9.66252 37.2969H22.9209C23.2035 37.2969 23.4412 37.207 23.6339 37.0271C23.8266 36.8473 23.9229 36.616 23.9229 36.3334C23.9229 36.0507 23.8266 35.8131 23.6339 35.6204C23.4412 35.4277 23.2035 35.3313 22.9209 35.3313H9.66252C9.37988 35.3313 9.14863 35.4277 8.96877 35.6204C8.78891 35.8131 8.69897 36.0507 8.69897 36.3334C8.69897 36.616 8.78891 36.8473 8.96877 37.0271Z" fill="#C2C2C2"/>
</svg>
