<svg width="40" height="52" viewBox="0 0 40 52" fill="none" xmlns="http://www.w3.org/2000/svg">
<path d="M20 51.2C19.746 51.2 19.4761 51.175 19.1901 51.125C18.9041 51.075 18.6431 51 18.4071 50.9C12.8191 48.675 8.3938 45.0125 5.1313 39.9125C1.8688 34.8125 0.237549 29.267 0.237549 23.276V10.946C0.237549 10.058 0.500549 9.23825 1.02655 8.48675C1.55305 7.73475 2.22755 7.1975 3.05005 6.875L18.5 1.1375C19.0126 0.9625 19.5126 0.875 20 0.875C20.4876 0.875 21 0.9625 21.5375 1.1375L36.9876 6.875C37.7851 7.1975 38.447 7.73475 38.9735 8.48675C39.4995 9.23825 39.7626 10.058 39.7626 10.946V23.276C39.7626 29.267 38.1313 34.8125 34.8688 39.9125C31.6063 45.0125 27.1876 48.675 21.6126 50.9C21.3556 51 21.0861 51.075 20.8041 51.125C20.5221 51.175 20.254 51.2 20 51.2ZM20 49.5125C25.1686 47.853 29.4356 44.5693 32.8011 39.6613C36.167 34.7528 37.8501 29.299 37.8501 23.3V10.8793C37.8501 10.4043 37.7126 9.9605 37.4376 9.548C37.1626 9.1355 36.7751 8.82925 36.2751 8.62925L20.8251 2.9375C20.5751 2.8375 20.3001 2.7875 20 2.7875C19.7001 2.7875 19.4251 2.8375 19.1751 2.9375L3.72505 8.62925C3.22505 8.82925 2.83755 9.1355 2.56255 9.548C2.28755 9.9605 2.15005 10.4043 2.15005 10.8793V23.3C2.15005 29.299 3.83305 34.7528 7.19905 39.6613C10.5646 44.5693 14.8316 47.853 20 49.5125Z" fill="#FF9900"/>
<path d="M11.1501 25.25L16.8876 31.0251L28.8471 19.0655C29.0741 18.8385 29.3063 18.725 29.5438 18.725C29.7813 18.725 30.0063 18.8375 30.2188 19.0625C30.4313 19.2875 30.5313 19.525 30.5188 19.775C30.5063 20.025 30.4101 20.24 30.2301 20.42L18.4251 32.225C17.9796 32.675 17.4658 32.9001 16.8838 32.9001C16.3023 32.9001 15.8036 32.675 15.3876 32.225L9.76257 26.6376C9.53757 26.4125 9.42507 26.1813 9.42507 25.9438C9.42507 25.7063 9.53757 25.475 9.76257 25.25C9.96257 25.05 10.1961 24.9563 10.4631 24.9688C10.7301 24.9813 10.9591 25.0751 11.1501 25.25Z" fill="#C2C2C2"/>
</svg>
