<svg width="44" height="42" viewBox="0 0 44 42" fill="none" xmlns="http://www.w3.org/2000/svg">
<path d="M2.49999 32.3334V39.5334V2.46672V32.3334ZM4.63332 41.2334C3.56799 41.2334 2.66288 40.8607 1.91799 40.1154C1.17265 39.3705 0.799988 38.4654 0.799988 37.4001V4.60006C0.799988 3.53472 1.17265 2.62961 1.91799 1.88472C2.66288 1.13939 3.56799 0.766724 4.63332 0.766724H37.4C38.4653 0.766724 39.3704 1.13939 40.1153 1.88472C40.8606 2.62961 41.2333 3.53472 41.2333 4.60006V12.9001H39.5333V4.60006C39.5333 3.97783 39.3333 3.46672 38.9333 3.06672C38.5333 2.66672 38.0222 2.46672 37.4 2.46672H4.63332C4.0111 2.46672 3.49999 2.66672 3.09999 3.06672C2.69999 3.46672 2.49999 3.97783 2.49999 4.60006V37.4001C2.49999 38.0223 2.69999 38.5334 3.09999 38.9334C3.49999 39.3334 4.0111 39.5334 4.63332 39.5334H37.4C38.0222 39.5334 38.5333 39.3334 38.9333 38.9334C39.3333 38.5334 39.5333 38.0223 39.5333 37.4001V29.1001H41.2333V37.4001C41.2333 38.4654 40.8606 39.3705 40.1153 40.1154C39.3704 40.8607 38.4653 41.2334 37.4 41.2334H4.63332ZM25.866 30.6334C24.7775 30.6334 23.8555 30.2552 23.1 29.4987C22.3444 28.7423 21.9667 27.8236 21.9667 26.7427V15.2647C21.9667 14.1772 22.3447 13.2556 23.1007 12.5001C23.8562 11.7445 24.7742 11.3667 25.8547 11.3667H39.9673C41.0558 11.3667 41.9778 11.7449 42.7333 12.5014C43.4889 13.2578 43.8666 14.1765 43.8666 15.2574V26.7354C43.8666 27.8229 43.4886 28.7445 42.7326 29.5001C41.9771 30.2556 41.0591 30.6334 39.9786 30.6334H25.866ZM40.0333 28.9334C40.6555 28.9334 41.1666 28.7334 41.5666 28.3334C41.9666 27.9334 42.1666 27.4223 42.1666 26.8001V15.2001C42.1666 14.5778 41.9666 14.0667 41.5666 13.6667C41.1666 13.2667 40.6555 13.0667 40.0333 13.0667H25.8C25.1778 13.0667 24.6667 13.2667 24.2667 13.6667C23.8667 14.0667 23.6667 14.5778 23.6667 15.2001V26.8001C23.6667 27.4223 23.8667 27.9334 24.2667 28.3334C24.6667 28.7334 25.1778 28.9334 25.8 28.9334H40.0333Z" fill="#FF9900"/>
<path d="M34.4166 23.8208C33.65 24.5848 32.7097 24.9668 31.596 24.9668C30.4822 24.9668 29.5433 24.5834 28.7793 23.8168C28.0153 23.0501 27.6333 22.1099 27.6333 20.9961C27.6333 19.8823 28.0166 18.9434 28.7833 18.1794C29.55 17.4154 30.4902 17.0334 31.604 17.0334C32.7177 17.0334 33.6566 17.4168 34.4206 18.1834C35.1846 18.9501 35.5666 19.8903 35.5666 21.0041C35.5666 22.1179 35.1833 23.0568 34.4166 23.8208Z" fill="#C2C2C2"/>
</svg>
