<svg width="50" height="48" viewBox="0 0 50 48" fill="none" xmlns="http://www.w3.org/2000/svg">
<path d="M16.4406 46.4125L12.9688 40.6375L6.40313 39.2625C5.92279 39.1677 5.53917 38.9073 5.25225 38.4815C4.96533 38.0557 4.84479 37.5942 4.89062 37.0969L5.50938 30.3498L1.10938 25.3063C0.765625 24.9625 0.59375 24.526 0.59375 23.9966C0.59375 23.4672 0.765625 23.0215 1.10938 22.6594L5.50938 17.6303L4.89062 10.9032C4.84479 10.4045 4.9651 9.9418 5.25156 9.51509C5.53802 9.08838 5.92188 8.81773 6.40313 8.70315L12.9688 7.36253L16.4406 1.55315C16.7156 1.11773 17.0727 0.814087 17.5117 0.642212C17.9513 0.470337 18.4078 0.487524 18.8813 0.693774L25 3.30627L31.1188 0.693774C31.5922 0.487524 32.0487 0.470337 32.4882 0.642212C32.9273 0.814087 33.2844 1.11773 33.5594 1.55315L37.0312 7.36253L43.5969 8.70315C44.0781 8.81773 44.462 9.08838 44.7484 9.51509C45.0349 9.9418 45.1552 10.4045 45.1094 10.9032L44.4906 17.6303L48.925 22.6594C49.2458 23.0215 49.4062 23.4672 49.4062 23.9966C49.4062 24.526 49.2426 24.9648 48.9154 25.3132L44.4906 30.3539L45.1094 37.0969C45.1552 37.5942 45.0347 38.0557 44.7477 38.4815C44.4608 38.9073 44.0772 39.1677 43.5969 39.2625L37.0312 40.6375L33.5594 46.4125C33.2844 46.8709 32.9273 47.186 32.4882 47.3578C32.0487 47.5297 31.5922 47.5125 31.1188 47.3063L25 44.6938L18.8813 47.3063C18.4078 47.5125 17.9513 47.5297 17.5117 47.3578C17.0727 47.186 16.7156 46.8709 16.4406 46.4125ZM18.0562 45.6907L25 42.8375L31.9438 45.6907L35.9313 39.1594L43.4216 37.497L42.7279 29.7455L47.7906 24L42.7279 18.2539L43.4216 10.5016L35.9313 8.84065L31.9438 2.3094L25 5.16252L18.0562 2.3094L14.0688 8.84065L6.57844 10.5016L7.27213 18.2539L2.20938 24L7.27213 29.7455L6.57844 37.4984L14.0688 39.1594L18.0562 45.6907Z" fill="#FF9900"/>
<path d="M16.9219 23.3469L22.1469 28.6063L33.1097 17.6434C33.3178 17.4353 33.5307 17.3313 33.7484 17.3313C33.9661 17.3313 34.1781 17.423 34.3844 17.6063C34.5906 17.8125 34.6823 18.036 34.6594 18.2766C34.6365 18.5172 34.5425 18.7201 34.3775 18.885L23.5562 29.7063C23.1479 30.1188 22.6792 30.3251 22.1503 30.3251C21.6209 30.3251 21.1615 30.1188 20.7719 29.7063L15.65 24.5844C15.4208 24.3782 15.3062 24.1719 15.3062 23.9657C15.3062 23.7594 15.4208 23.5417 15.65 23.3126C15.8333 23.1292 16.0453 23.049 16.2859 23.0719C16.5266 23.0948 16.7385 23.1865 16.9219 23.3469Z" fill="#C2C2C2"/>
</svg>
